HIERARCHY
ROOT reference
{
  OFFSET 0 0 0
  CHANNELS 6 Xposition Yposition Zposition Zrotation Xrotation Yrotation
  JOINT Hips
  {
    OFFSET 339.145 90.8604 236.464
    CHANNELS 3 Zrotation Xrotation Yrotation
    JOINT RightUpLeg
    {
      OFFSET -9.24113 -1.522 -0.0337757
      CHANNELS 3 Zrotation Xrotation Yrotation
      JOINT RightLeg
      {
        OFFSET 0.0344394 -41.8985 0.100154
        CHANNELS 3 Zrotation Xrotation Yrotation
        JOINT RightFoot
        {
          OFFSET -0.415571 -42.0751 0.023027
          CHANNELS 3 Zrotation Xrotation Yrotation
          End Site
          {
            OFFSET 0 -7.69 17.5
          }
        }
      }
    }
    JOINT LeftUpLeg
    {
      OFFSET 9.30897 -1.67379 -0.0291548
      CHANNELS 3 Zrotation Xrotation Yrotation
      JOINT LeftLeg
      {
        OFFSET 0.0832755 -41.864 -0.14338
        CHANNELS 3 Zrotation Xrotation Yrotation
        JOINT LeftFoot
        {
          OFFSET 0.17151 -41.5225 0.735469
          CHANNELS 3 Zrotation Xrotation Yrotation
          End Site
          {
            OFFSET 0 -7.69 17.5
          }
        }
      }
    }
    JOINT Spine
    {
      OFFSET 0.00853273 14.2903 0.0777264
      CHANNELS 3 Zrotation Xrotation Yrotation
      JOINT Spine1
      {
        OFFSET 0.0173944 9.71323 0.029081
        CHANNELS 3 Zrotation Xrotation Yrotation
        JOINT Spine2
        {
          OFFSET 0.0412483 10.1247 -0.0145163
          CHANNELS 3 Zrotation Xrotation Yrotation
          JOINT Spine3
          {
            OFFSET 0.0279063 9.71793 0.00755232
            CHANNELS 3 Zrotation Xrotation Yrotation
            JOINT Neck
            {
              OFFSET 0.0852486 10.3712 0.0268485
              CHANNELS 3 Zrotation Xrotation Yrotation
              JOINT Head
              {
                OFFSET 0.0739267 9.48251 0.0332551
                CHANNELS 3 Zrotation Xrotation Yrotation
                End Site
                {
                  OFFSET 0 15.95 0
                }
              }
            }
            JOINT RightShoulder
            {
              OFFSET -3.14957 6.95772 0.0300988
              CHANNELS 3 Zrotation Xrotation Yrotation
              JOINT RightArm
              {
                OFFSET -12.7513 0.0411148 0.0791701
                CHANNELS 3 Zrotation Xrotation Yrotation
                JOINT RightForeArm
                {
                  OFFSET -26.4959 0.0361336 0.259434
                  CHANNELS 3 Zrotation Xrotation Yrotation
                  JOINT RightHand
                  {
                    OFFSET -25.9829 -0.0837334 0.191464
                    CHANNELS 3 Zrotation Xrotation Yrotation
                    JOINT RightHandThumb1
                    {
                      OFFSET -2.48905 0.190105 3.12053
                      CHANNELS 3 Zrotation Xrotation Yrotation
                      JOINT RightHandThumb2
                      {
                        OFFSET -3.68274 0 0
                        CHANNELS 3 Zrotation Xrotation Yrotation
                        JOINT RightHandThumb3
                        {
                          OFFSET -2.55832 0 0
                          CHANNELS 3 Zrotation Xrotation Yrotation
                          End Site
                          {
                            OFFSET -2.194 0 0
                          }
                        }
                      }
                    }
                    JOINT RightInHandIndex
                    {
                      OFFSET -3.22368 0.508421 1.97842
                      CHANNELS 3 Zrotation Xrotation Yrotation
                      JOINT RightHandIndex1
                      {
                        OFFSET -5.21684 -0.091368 0.999158
                        CHANNELS 3 Zrotation Xrotation Yrotation
                        JOINT RightHandIndex2
                        {
                          OFFSET -3.61937 0 0
                          CHANNELS 3 Zrotation Xrotation Yrotation
                          JOINT RightHandIndex3
                          {
                            OFFSET -2.0521 0 0
                            CHANNELS 3 Zrotation Xrotation Yrotation
                            End Site
                            {
                              OFFSET -1.805 0 0
                            }
                          }
                        }
                      }
                    }
                    JOINT RightInHandMiddle
                    {
                      OFFSET -3.38211 0.517263 0.756737
                      CHANNELS 3 Zrotation Xrotation Yrotation
                      JOINT RightHandMiddle1
                      {
                        OFFSET -5.17411 -0.084 0.313895
                        CHANNELS 3 Zrotation Xrotation Yrotation
                        JOINT RightHandMiddle2
                        {
                          OFFSET -3.94947 0 0
                          CHANNELS 3 Zrotation Xrotation Yrotation
                          JOINT RightHandMiddle3
                          {
                            OFFSET -2.47579 0 0
                            CHANNELS 3 Zrotation Xrotation Yrotation
                            End Site
                            {
                              OFFSET -1.975 0 0
                            }
                          }
                        }
                      }
                    }
                    JOINT RightInHandRing
                    {
                      OFFSET -3.36516 0.537895 -0.128947
                      CHANNELS 3 Zrotation Xrotation Yrotation
                      JOINT RightHandRing1
                      {
                        OFFSET -4.63474 -0.022105 -0.478947
                        CHANNELS 3 Zrotation Xrotation Yrotation
                        JOINT RightHandRing2
                        {
                          OFFSET -3.44238 0 0
                          CHANNELS 3 Zrotation Xrotation Yrotation
                          JOINT RightHandRing3
                          {
                            OFFSET -2.3881 0 0
                            CHANNELS 3 Zrotation Xrotation Yrotation
                            End Site
                            {
                              OFFSET -1.857 0 0
                            }
                          }
                        }
                      }
                    }
                    JOINT RightInHandPinky
                    {
                      OFFSET -3.16105 0.469368 -1.20179
                      CHANNELS 3 Zrotation Xrotation Yrotation
                      JOINT RightHandPinky1
                      {
                        OFFSET -4.14105 -0.022105 -1.09053
                        CHANNELS 3 Zrotation Xrotation Yrotation
                        JOINT RightHandPinky2
                        {
                          OFFSET -2.75653 0 0
                          CHANNELS 3 Zrotation Xrotation Yrotation
                          JOINT RightHandPinky3
                          {
                            OFFSET -1.74189 0 0
                            CHANNELS 3 Zrotation Xrotation Yrotation
                            End Site
                            {
                              OFFSET -1.645 0 0
                            }
                          }
                        }
                      }
                    }
                  }
                }
              }
            }
            JOINT LeftShoulder
            {
              OFFSET 3.25273 6.91522 -0.0295735
              CHANNELS 3 Zrotation Xrotation Yrotation
              JOINT LeftArm
              {
                OFFSET 12.7785 0.0134102 -0.0213482
                CHANNELS 3 Zrotation Xrotation Yrotation
                JOINT LeftForeArm
                {
                  OFFSET 26.5044 -0.0446277 0.0404034
                  CHANNELS 3 Zrotation Xrotation Yrotation
                  JOINT LeftHand
                  {
                    OFFSET 25.9955 -0.0467726 -0.0166804
                    CHANNELS 3 Zrotation Xrotation Yrotation
                    JOINT LeftHandThumb1
                    {
                      OFFSET 2.48905 0.190105 3.12053
                      CHANNELS 3 Zrotation Xrotation Yrotation
                      JOINT LeftHandThumb2
                      {
                        OFFSET 3.68274 0 0
                        CHANNELS 3 Zrotation Xrotation Yrotation
                        JOINT LeftHandThumb3
                        {
                          OFFSET 2.55832 0 0
                          CHANNELS 3 Zrotation Xrotation Yrotation
                          End Site
                          {
                            OFFSET 2.194 0 0
                          }
                        }
                      }
                    }
                    JOINT LeftInHandIndex
                    {
                      OFFSET 3.22368 0.508421 1.97842
                      CHANNELS 3 Zrotation Xrotation Yrotation
                      JOINT LeftHandIndex1
                      {
                        OFFSET 5.21684 -0.091368 0.999158
                        CHANNELS 3 Zrotation Xrotation Yrotation
                        JOINT LeftHandIndex2
                        {
                          OFFSET 3.61937 0 0
                          CHANNELS 3 Zrotation Xrotation Yrotation
                          JOINT LeftHandIndex3
                          {
                            OFFSET 2.0521 0 0
                            CHANNELS 3 Zrotation Xrotation Yrotation
                            End Site
                            {
                              OFFSET 1.805 0 0
                            }
                          }
                        }
                      }
                    }
                    JOINT LeftInHandMiddle
                    {
                      OFFSET 3.38211 0.517263 0.756737
                      CHANNELS 3 Zrotation Xrotation Yrotation
                      JOINT LeftHandMiddle1
                      {
                        OFFSET 5.17411 -0.084 0.313895
                        CHANNELS 3 Zrotation Xrotation Yrotation
                        JOINT LeftHandMiddle2
                        {
                          OFFSET 3.94947 0 0
                          CHANNELS 3 Zrotation Xrotation Yrotation
                          JOINT LeftHandMiddle3
                          {
                            OFFSET 2.47579 0 0
                            CHANNELS 3 Zrotation Xrotation Yrotation
                            End Site
                            {
                              OFFSET 1.975 0 0
                            }
                          }
                        }
                      }
                    }
                    JOINT LeftInHandRing
                    {
                      OFFSET 3.36516 0.537895 -0.128947
                      CHANNELS 3 Zrotation Xrotation Yrotation
                      JOINT LeftHandRing1
                      {
                        OFFSET 4.63474 -0.022105 -0.478947
                        CHANNELS 3 Zrotation Xrotation Yrotation
                        JOINT LeftHandRing2
                        {
                          OFFSET 3.44238 0 0
                          CHANNELS 3 Zrotation Xrotation Yrotation
                          JOINT LeftHandRing3
                          {
                            OFFSET 2.3881 0 0
                            CHANNELS 3 Zrotation Xrotation Yrotation
                            End Site
                            {
                              OFFSET 1.857 0 0
                            }
                          }
                        }
                      }
                    }
                    JOINT LeftInHandPinky
                    {
                      OFFSET 3.16105 0.469368 -1.20179
                      CHANNELS 3 Zrotation Xrotation Yrotation
                      JOINT LeftHandPinky1
                      {
                        OFFSET 4.14105 -0.022105 -1.09053
                        CHANNELS 3 Zrotation Xrotation Yrotation
                        JOINT LeftHandPinky2
                        {
                          OFFSET 2.75653 0 0
                          CHANNELS 3 Zrotation Xrotation Yrotation
                          JOINT LeftHandPinky3
                          {
                            OFFSET 1.74189 0 0
                            CHANNELS 3 Zrotation Xrotation Yrotation
                            End Site
                            {
                              OFFSET 1.645 0 0
                            }
                          }
                        }
                      }
                    }
                  }
                }
              }
            }
          }
        }
      }
    }
  }
}
MOTION
Frames: 2
Frame Time: 0.00833333
7.500000000000000000e+02 0.000000000000000000e+00 0.000000000000000000e+00 0.000000000000000000e+00 0.000000000000000000e+00 0.000000000000000000e+00 3.861467700643468337e-01 -4.148739633689240147e-01 -7.933944288373932174e+00 1.387577804507631818e+01 2.822365165975564971e-01 8.522686650537568909e+00 -2.346201945131228150e+00 2.855870246101215315e-01 6.731352583448328097e+00 -7.187630532893908963e+00 1.071283125832503202e+01 1.342412669257753777e+01 8.518154043550410393e+00 6.344563381352728904e+00 5.306474660564189705e+00 -7.114041449246519377e+00 4.863365458878133318e-01 3.821184077876420115e+00 9.918699360066506321e-01 -4.867523526936217149e-01 6.244828032144820185e+00 -4.574515253640152324e+00 -8.273607369164562186e+00 2.653311938260308533e+00 -1.209873576393148298e+00 -2.208009646057173647e+00 5.956501831286086235e-01 -1.917617194599106956e+00 -3.654438260317163234e+00 4.604171298669967327e-01 1.028343207476140470e-01 -2.123605454070490728e-01 5.335053308050511367e-01 9.306120900283050279e-01 -2.184449465301470106e+00 6.365718902080679698e+00 7.167758027957792377e-01 9.364197032731406134e-01 5.632772369677701896e+00 -7.621202060179163018e-01 2.948374063866422645e+00 -1.247442406288401973e+00 -2.357436307853916091e+01 -6.030930933034728270e+00 -1.094306791513895050e+01 -2.183253538980910236e+01 -1.096311284845844902e+01 3.910456516668064353e+01 2.617338314558428802e+00 6.835886302955207050e+00 2.118078616065302011e+00 0.000000000000000000e+00 0.000000000000000000e+00 0.000000000000000000e+00 2.613600984101558159e-16 2.197717233685405356e-15 0.000000000000000000e+00 3.535330162991697565e-15 7.269523289359901637e-18 0.000000000000000000e+00 1.189814128288497188e-15 -5.901181116931533197e-16 4.842936903537310998e-16 0.000000000000000000e+00 0.000000000000000000e+00 0.000000000000000000e+00 0.000000000000000000e+00 1.268480985142055385e-15 4.365690981942783729e-15 0.000000000000000000e+00 -5.252024784216725237e-16 1.295965008325317269e-15 1.189814128288497188e-15 -5.901181116931533197e-16 4.842936903537310998e-16 0.000000000000000000e+00 -5.317912547085216938e-16 -3.689141690965588152e-15 0.000000000000000000e+00 2.788394626740731920e-15 1.263053923277104282e-15 0.000000000000000000e+00 -2.326621235213915907e-15 1.990662983746798352e-15 1.189814128288497188e-15 -5.901181116931533197e-16 4.842936903537310998e-16 0.000000000000000000e+00 0.000000000000000000e+00 0.000000000000000000e+00 0.000000000000000000e+00 7.607741549588468383e-15 3.209811014733458852e-14 0.000000000000000000e+00 2.710119772356053384e-15 6.883507771257283861e-16 1.189814128288497188e-15 -5.901181116931533197e-16 4.842936903537310998e-16 0.000000000000000000e+00 0.000000000000000000e+00 0.000000000000000000e+00 0.000000000000000000e+00 -2.647672370864904193e-16 -2.424910072941488944e-15 0.000000000000000000e+00 -1.744963466087764470e-15 3.212810247934406464e-16 -3.712717918947063378e+00 7.029909800916356311e-01 -1.290183917211257025e+00 2.886110402270106956e+00 -1.185877096068732861e+01 -3.364480029088440016e+00 3.549098009413194887e+01 5.642058858583195224e+00 -1.802385309491458587e+00 4.895135738756322574e+00 1.620624352015832548e+00 -1.619762064810883473e+00 0.000000000000000000e+00 0.000000000000000000e+00 0.000000000000000000e+00 -8.331384733453205125e-17 9.122916014868976781e-16 0.000000000000000000e+00 -2.393836976140209510e-16 1.876733475694841104e-15 0.000000000000000000e+00 -1.331970893117108200e-15 1.342229371578232633e-15 -2.096108284225523942e-15 0.000000000000000000e+00 0.000000000000000000e+00 0.000000000000000000e+00 0.000000000000000000e+00 -6.891712318309124275e-16 -2.020492080096604933e-15 0.000000000000000000e+00 -1.154632946309974384e-15 1.771626508959846855e-15 -1.331970893117108200e-15 1.342229371578232633e-15 -2.096108284225523942e-15 0.000000000000000000e+00 -6.852123403760088921e-16 1.759623780982181667e-16 0.000000000000000000e+00 2.583449506375755563e-15 -5.112957051509015081e-15 0.000000000000000000e+00 -2.340597870763688156e-15 -4.709648737131813520e-15 -1.331970893117108200e-15 1.342229371578232633e-15 -2.096108284225523942e-15 0.000000000000000000e+00 0.000000000000000000e+00 0.000000000000000000e+00 0.000000000000000000e+00 -2.108379815291509929e-15 -7.958380486353521692e-16 0.000000000000000000e+00 1.193409648924999586e-15 -3.366252969777357104e-15 -1.331970893117108200e-15 1.342229371578232633e-15 -2.096108284225523942e-15 0.000000000000000000e+00 0.000000000000000000e+00 0.000000000000000000e+00 0.000000000000000000e+00 1.242237654184857183e-16 -3.267722136448605974e-15 0.000000000000000000e+00 1.371185218387468789e-16 -3.501846303451037860e-15
7.500000000000000000e+02 0.000000000000000000e+00 0.000000000000000000e+00 0.000000000000000000e+00 0.000000000000000000e+00 0.000000000000000000e+00 4.732135775652213661e-01 -1.958474039796727351e-01 -7.920617390252194134e+00 1.380463913417828969e+01 -2.901907516087611771e-01 8.346271436468441607e+00 -2.342445390717137421e+00 5.131722417697864858e-01 6.766561538909821039e+00 -7.095214774661186219e+00 1.061638693041905768e+01 1.326426015668741343e+01 8.642530254386638688e+00 5.872400994890327297e+00 5.290338235142157508e+00 -6.976290861317635539e+00 5.459427421415042891e-01 3.725452995414111790e+00 9.870504772882526812e-01 -5.742720209592859781e-01 6.260438397086779183e+00 -4.504598048350304751e+00 -8.168649499758572574e+00 2.381637836972342104e+00 -1.197832971601949126e+00 -2.167137693334177495e+00 5.249103991162281657e-01 -1.895886197871996304e+00 -3.582545044069581408e+00 3.532320571978309620e-01 9.387794639572076549e-02 -2.141551967975327819e-01 5.487040878751213713e-01 9.198584975116094187e-01 -2.096473596516692961e+00 6.285497721231545043e+00 5.380988075163445350e-01 6.792231684866274488e-01 5.997208812544384315e+00 -6.936537260161214080e-01 2.967879160246674530e+00 -1.265337626640806512e+00 -2.258316012560141317e+01 -6.022530874521354605e+00 -1.106465048163053844e+01 -2.129333644067232356e+01 -1.132945084280541437e+01 3.946444750386901035e+01 2.471201128965921701e+00 6.725926836986968027e+00 2.361739963344480220e+00 0.000000000000000000e+00 0.000000000000000000e+00 0.000000000000000000e+00 1.814765513221188445e-16 2.252849502919663357e-15 0.000000000000000000e+00 3.405362323608294900e-15 5.496699545147392884e-18 0.000000000000000000e+00 1.257912567602772300e-15 -5.210773136128983109e-16 4.566957893649378570e-16 0.000000000000000000e+00 0.000000000000000000e+00 0.000000000000000000e+00 0.000000000000000000e+00 1.362247820412144321e-15 4.359583170791389948e-15 0.000000000000000000e+00 -4.404730149476024150e-16 1.180015090522061728e-15 1.257912567602772300e-15 -5.210773136128983109e-16 4.566957893649378570e-16 0.000000000000000000e+00 -5.026944658319869197e-16 -3.482281570017211731e-15 0.000000000000000000e+00 2.781485239431243742e-15 1.074564839187512876e-15 0.000000000000000000e+00 -2.383398254159676920e-15 1.890403644753913111e-15 1.257912567602772300e-15 -5.210773136128983109e-16 4.566957893649378570e-16 0.000000000000000000e+00 0.000000000000000000e+00 0.000000000000000000e+00 0.000000000000000000e+00 7.445736147831225809e-15 3.091184963011764840e-14 0.000000000000000000e+00 2.748397450965651256e-15 8.221699639957494133e-16 1.257912567602772300e-15 -5.210773136128983109e-16 4.566957893649378570e-16 0.000000000000000000e+00 0.000000000000000000e+00 0.000000000000000000e+00 0.000000000000000000e+00 -3.738886325308649195e-16 -2.657372219081978921e-15 0.000000000000000000e+00 -1.791385912044538192e-15 3.559652431343049718e-16 -3.610165685424379323e+00 8.495953234066732085e-01 -1.184421602770814985e+00 3.383037023754205119e+00 -1.171427136789787582e+01 -3.534258821539081552e+00 3.584092522419019389e+01 6.151839065807829243e+00 -3.842318481882537329e-01 4.800391824877244140e+00 1.733433191952171937e+00 -1.359873729989274027e+00 0.000000000000000000e+00 0.000000000000000000e+00 0.000000000000000000e+00 -1.596049286457192642e-16 9.033212972143986450e-16 0.000000000000000000e+00 -1.553022306452518560e-16 1.900765194708571114e-15 0.000000000000000000e+00 -1.309447134417038231e-15 1.333956893623638341e-15 -2.035158319543505549e-15 0.000000000000000000e+00 0.000000000000000000e+00 0.000000000000000000e+00 0.000000000000000000e+00 -6.469457481891910587e-16 -2.235340594445593331e-15 0.000000000000000000e+00 -1.167097774635252587e-15 1.645976851713611533e-15 -1.309447134417038231e-15 1.333956893623638341e-15 -2.035158319543505549e-15 0.000000000000000000e+00 -6.253961394925612494e-16 6.900966061419563597e-17 0.000000000000000000e+00 2.617392827434657864e-15 -5.342361961234504150e-15 0.000000000000000000e+00 -2.389898684306803352e-15 -4.882203543592895083e-15 -1.309447134417038231e-15 1.333956893623638341e-15 -2.035158319543505549e-15 0.000000000000000000e+00 0.000000000000000000e+00 0.000000000000000000e+00 0.000000000000000000e+00 -2.114384317576835709e-15 -9.848111692292528290e-16 0.000000000000000000e+00 1.294385045840053462e-15 -3.556892828628873349e-15 -1.309447134417038231e-15 1.333956893623638341e-15 -2.035158319543505549e-15 0.000000000000000000e+00 0.000000000000000000e+00 0.000000000000000000e+00 0.000000000000000000e+00 1.491266697302017829e-16 -3.381853797474933970e-15 0.000000000000000000e+00 6.846184533254901845e-17 -3.467648546877237819e-15
